HIERARCHY
ROOT RootJoint
{
    OFFSET   0.000000   0.000000   0.000000
    CHANNELS 6 Xposition Yposition Zposition Xrotation Yrotation Zrotation
    JOINT pelvis_lowerback
    {
        OFFSET   0.000000   0.093605   0.000000
        CHANNELS 3 Xrotation Yrotation Zrotation
        JOINT lowerback_torso
        {
            OFFSET   0.000000   0.100000   0.000000
            CHANNELS 3 Xrotation Yrotation Zrotation
            JOINT torso_head
            {
                OFFSET   0.000000   0.282350   0.000000
                CHANNELS 3 Xrotation Yrotation Zrotation
                End Site
                {
                    OFFSET   0.000000   0.192650   0.000000
                }
            }
            JOINT rTorso_Clavicle
            {
                OFFSET  -0.001000   0.157500   0.000000
                CHANNELS 3 Xrotation Yrotation Zrotation
                JOINT rShoulder
                {
                    OFFSET  -0.117647   0.000000   0.000000
                    CHANNELS 3 Xrotation Yrotation Zrotation
                    JOINT rElbow
                    {
                        OFFSET  -0.245000   0.000000   0.000000
                        CHANNELS 3 Xrotation Yrotation Zrotation
                        JOINT rWrist
                        {
                            OFFSET  -0.240000   0.000000   0.000000
                            CHANNELS 3 Xrotation Yrotation Zrotation
                            End Site
                            {
                                OFFSET  -0.116353  -0.002500   0.000000
                            }
                        }
                    }
                }
            }
            JOINT lTorso_Clavicle
            {
                OFFSET   0.001000   0.157500   0.000000
                CHANNELS 3 Xrotation Yrotation Zrotation
                JOINT lShoulder
                {
                    OFFSET   0.117647   0.000000   0.000000
                    CHANNELS 3 Xrotation Yrotation Zrotation
                    JOINT lElbow
                    {
                        OFFSET   0.245000   0.000000   0.000000
                        CHANNELS 3 Xrotation Yrotation Zrotation
                        JOINT lWrist
                        {
                            OFFSET   0.240000   0.000000   0.000000
                            CHANNELS 3 Xrotation Yrotation Zrotation
                            End Site
                            {
                                OFFSET   0.116353  -0.002500   0.000000
                            }
                        }
                    }
                }
            }
        }
    }
    JOINT rHip
    {
        OFFSET  -0.100000  -0.051395   0.000000
        CHANNELS 3 Xrotation Yrotation Zrotation
        JOINT rKnee
        {
            OFFSET   0.000000  -0.410000   0.000000
            CHANNELS 3 Xrotation Yrotation Zrotation
            JOINT rAnkle
            {
                OFFSET   0.000000  -0.390000   0.000000
                CHANNELS 3 Xrotation Yrotation Zrotation
                JOINT rToeJoint
                {
                    OFFSET   0.000000  -0.050000   0.130000
                    CHANNELS 3 Xrotation Yrotation Zrotation
                    End Site
                    {
                        OFFSET  -0.010000   0.002000   0.060000
                    }
                }
            }
        }
    }
    JOINT lHip
    {
        OFFSET   0.100000  -0.051395   0.000000
        CHANNELS 3 Xrotation Yrotation Zrotation
        JOINT lKnee
        {
            OFFSET   0.000000  -0.410000   0.000000
            CHANNELS 3 Xrotation Yrotation Zrotation
            JOINT lAnkle
            {
                OFFSET   0.000000  -0.390000   0.000000
                CHANNELS 3 Xrotation Yrotation Zrotation
                JOINT lToeJoint
                {
                    OFFSET   0.000000  -0.050000   0.130000
                    CHANNELS 3 Xrotation Yrotation Zrotation
                    End Site
                    {
                        OFFSET   0.010000   0.002000   0.060000
                    }
                }
            }
        }
    }
}
MOTION
Frames: 17
Frame Time:   0.008333
 -2.353631   0.906738   3.927351  12.609341  -8.840415   6.290602  11.284909  -0.912975  -0.446393   3.793876   1.029532   1.211711  -1.032107   0.231149  -0.748701   5.301726 -16.104984   2.531634  34.121693   4.275751  41.099201 -179.992703  78.982837 179.992928  -6.592401   9.005048   7.862304   6.941456  12.735075   0.504945  43.684810 -10.783479 -37.968407 179.999835 -79.314778 179.999918  -3.948120  -9.491291  -9.547807 -22.472462  -4.659824 -16.350074  18.619190  -0.000022  -0.000005  -6.319157  -6.044759   6.530245  -2.288608  -0.000369  -0.001732 -17.386289   7.131041   0.755324  17.447177  -0.000450  -0.000332  -8.781991   9.295803  -0.568377  -4.254262  -0.000136   0.001739
 -2.353964   0.906694   3.926951  12.632724  -8.874468   6.327609  11.365912  -0.841635  -0.515860   3.735250   1.060216   1.189101  -1.056222   0.186422  -0.702605   5.327058 -16.072321   2.487000  34.097980   4.310090  41.203570 -179.993779  79.087041 179.993999  -6.556517   8.964256   7.792861   6.951292  12.726002   0.604043  43.609710 -10.770365 -37.929603 -179.999875 -79.206719 -179.999767  -3.910818  -9.494897  -9.604944 -22.331037  -4.672363 -16.310857  18.271223   0.000117  -0.000014  -6.418111  -6.175216   6.526195  -1.840289  -0.000566  -0.001787 -17.476258   7.043915   0.789157  17.540711  -0.000429  -0.000356  -8.759232   9.214192  -0.599553  -4.251465  -0.000109   0.001386
 -2.354266   0.906639   3.926570  12.680865  -8.925467   6.357126  11.416834  -0.773327  -0.611799   3.659117   1.089044   1.159972  -1.084961   0.144839  -0.658658   5.361392 -16.053363   2.443828  34.085143   4.340246  41.308284 -179.994899  79.177982 179.995114  -6.525821   8.941653   7.753795   6.957987  12.728212   0.721136  43.538447 -10.745741 -37.887306 -179.999647 -79.097996 -179.999514  -3.874358  -9.500108  -9.620888 -22.189447  -4.686555 -16.254464  17.869516   0.000251   0.000013  -6.502173  -6.294650   6.520706  -1.370258  -0.000741  -0.001834 -17.569141   6.959770   0.834788  17.599095  -0.000387  -0.000347  -8.746258   9.139793  -0.629086  -4.251315  -0.000087   0.001108
 -2.354496   0.906560   3.926197  12.734369  -8.999484   6.382841  11.456498  -0.709725  -0.726576   3.579825   1.114544   1.118277  -1.114800   0.106239  -0.620494   5.395712 -16.039476   2.400305  34.075187   4.366458  41.406538 -179.995984  79.260873 179.996197  -6.497956   8.930279   7.722251   6.963388  12.732782   0.841253  43.471900 -10.716889 -37.843857 -179.999588 -78.996011 -179.999433  -3.839326  -9.506056  -9.612684 -22.059632  -4.699245 -16.191259  17.468058   0.000362   0.000111  -6.573675  -6.405025   6.514329  -0.908467  -0.000868  -0.001916 -17.654157   6.867957   0.888155  17.645904  -0.000347  -0.000339  -8.736141   9.060040  -0.652563  -4.331252  -0.000053   0.001058
 -2.354804   0.906160   3.925904  12.771978  -8.984338   6.468685  11.464830  -0.697518  -0.917050   3.503128   1.099628   1.053026  -1.142261   0.068664  -0.586145   5.443437 -16.050981   2.361920  34.078965   4.384891  41.509189 -179.997002  79.332827 179.997226  -6.474661   8.940198   7.718697   6.968401  12.734903   0.989698  43.412839 -10.676296 -37.785869 -179.999524 -78.899723 -179.999362  -3.805665  -9.512347  -9.589829 -21.883637  -4.711253 -16.203893  17.070251   0.000415  -0.000060  -6.398642  -6.498308   6.433020  -2.632576  -0.001274  -0.000765 -17.728423   6.782830   0.846280  17.709711  -0.000312  -0.000318  -8.831464   8.970929  -0.705912  -4.218958  -0.000009   0.000670
 -2.354950   0.906029   3.925488  12.831083  -9.050706   6.485876  11.497575  -0.647582  -1.041720   3.418061   1.110658   0.985247  -1.173834   0.035089  -0.560566   5.472380 -16.041710   2.323629  34.069642   4.402606  41.592486 -179.997844  79.408688 179.998082  -6.447685   8.922235   7.670694   6.965636  12.729515   1.086846  43.347787 -10.654224 -37.746253 -179.999660 -78.814637 -179.999512  -3.772840  -9.518898  -9.555955 -21.771690  -4.728212 -16.143444  16.701956   0.000454   0.000049  -6.575904  -6.611341   6.444536  -2.029478  -0.001465  -0.001170 -17.819373   6.715017   0.885502  17.748479  -0.000270  -0.000297  -8.874834   8.911030  -0.736922  -4.162142  -0.000001   0.000440
 -2.354991   0.905973   3.925047  12.883480  -9.123555   6.488861  11.532843  -0.608086  -1.169226   3.345046   1.119289   0.919690  -1.201055   0.003427  -0.534415   5.497925 -16.030926   2.285147  34.059524   4.421213  41.670259 -179.998549  79.477229 179.998793  -6.422399   8.908529   7.622916   6.962237  12.721710   1.175896  43.285844 -10.637949 -37.710679 -179.999876 -78.732621 -179.999742  -3.741900  -9.524818  -9.529797 -21.669100  -4.741266 -16.075130  16.346252   0.000466   0.000144  -6.661900  -6.704011   6.444293  -1.476894  -0.001465  -0.001401 -17.904234   6.650120   0.931628  17.780273  -0.000231  -0.000272  -8.895642   8.857813  -0.762474  -4.131467   0.000003   0.000302
 -2.355075   0.906228   3.924815  12.954872  -9.191957   6.332076  11.484284  -0.573068  -1.195945   3.303942   1.152940   0.898842  -1.225426  -0.022860  -0.451941   5.517903 -16.036465   2.233350  34.102475   4.466481  41.797068 -179.999242  79.570446 179.999467  -6.418688   8.868391   7.550246   6.943053  12.760145   1.254770  43.183695 -10.600443 -37.700846 -179.999685 -78.644631 -179.999596  -3.744005  -9.636553  -9.609425 -21.526846  -4.729682 -15.843420  15.933162   0.000425  -0.000103  -6.425122  -6.762214   6.502095  -1.053145  -0.001471  -0.001117 -17.937697   6.555402   1.137996  17.656221  -0.000118  -0.000108  -8.964365   8.806221  -0.715189  -3.793662  -0.000168  -0.000255
 -2.355164   0.906481   3.924740  13.024008  -9.217471   6.170434  11.397700  -0.563171  -1.265032   3.253160   1.167731   0.886964  -1.249049  -0.047630  -0.368142   5.557532 -16.066491   2.195003  34.160351   4.506924  41.932899 -179.999950  79.652579 -179.999846  -6.418141   8.833339   7.531954   6.926509  12.810594   1.362619  43.091738 -10.549414 -37.683210 -179.999459 -78.554470 -179.999412  -3.724543  -9.615126  -9.650887 -21.357178  -4.753287 -15.620400  15.495267   0.000386  -0.000363  -6.194235  -6.834077   6.539251  -0.657629  -0.001379  -0.000887 -17.956026   6.469702   1.358675  17.500847   0.000001  -0.000024  -9.033961   8.774633  -0.659663  -3.363706  -0.000460  -0.000561
 -2.355179   0.906692   3.924778  13.089294  -9.235871   6.014435  11.292748  -0.559365  -1.361303   3.192364   1.172785   0.861901  -1.274679  -0.070679  -0.292993   5.603784 -16.107718   2.160269  34.222366   4.540463  42.064762 179.999361  79.727638 -179.999164  -6.418929   8.805399   7.534440   6.912973  12.863934   1.480325  43.009211 -10.491245 -37.660599 -179.999306 -78.471898 -179.999297  -3.706292  -9.598936  -9.670582 -21.182565  -4.781976 -15.413324  15.065742   0.000330  -0.000555  -5.975506  -6.904072   6.567896  -0.294955  -0.001237  -0.000703 -17.962165   6.378593   1.561429  17.355560   0.000079   0.000044  -9.106819   8.726173  -0.615565  -3.035408  -0.000567  -0.000769
 -2.355099   0.906846   3.924899  13.149174  -9.252163   5.859528  11.177996  -0.559414  -1.473638   3.124800   1.171990   0.824101  -1.301383  -0.092232  -0.225685   5.650884 -16.153187   2.125259  34.283731   4.568194  42.188657 179.998731  79.797069 -179.998528  -6.420217   8.781828   7.539585   6.900801  12.916107   1.597960  42.933397 -10.432243 -37.636364 -179.999228 -78.395494 -179.999257  -3.689173  -9.586675  -9.678830 -21.007652  -4.812537 -15.217852  14.653308   0.000261  -0.000682  -5.770349  -6.970524   6.590992  -0.208771  -0.001012  -0.000560 -17.960653   6.289957   1.746649  17.220963   0.000117   0.000094  -9.183603   8.675946  -0.576745  -2.827844  -0.000546  -0.000814
 -2.354912   0.906940   3.925083  13.203787  -9.269106   5.703283  11.058176  -0.561492  -1.596637   3.052790   1.167721   0.775660  -1.328363  -0.112400  -0.164922   5.696307 -16.199361   2.089378  34.342358   4.591534  42.303755 179.998185  79.861475 -179.997968  -6.421708   8.761546   7.541269   6.889139  12.965278   1.710613  42.862724 -10.375557 -37.612318 -179.999214 -78.324538 -179.999279  -3.673094  -9.577405  -9.681313 -20.835166  -4.843303 -15.031237  14.260438   0.000181  -0.000754  -5.578030  -7.032654   6.610427  -0.138398  -0.000820  -0.000447 -17.953311   6.203561   1.911609  17.098111   0.000121   0.000133  -9.266823   8.622898  -0.543479  -2.754247  -0.000454  -0.000723
 -2.354623   0.906977   3.925314  13.253555  -9.280651   5.543515  10.936121  -0.567086  -1.726922   2.977908   1.159470   0.719509  -1.355146  -0.131361  -0.109598   5.739368 -16.245079   2.053933  34.397686   4.611637  42.410884 179.997737  79.921323 -179.997502  -6.423304   8.743915   7.538612   6.877288  13.010054   1.816609  42.796060 -10.322583 -37.588876 -179.999248 -78.258547 -179.999348  -3.657945  -9.570463  -9.680470 -20.666176  -4.877330 -14.852490  13.888376   0.000095  -0.000796  -5.398680  -7.093868   6.627742  -0.080585  -0.000659  -0.000357 -17.943037   6.127095   2.066363  16.986654   0.000106   0.000147  -9.354865   8.580310  -0.510189  -2.794687  -0.000358  -0.000548
 -2.354359   0.907075   3.925520  13.307097  -9.386268   5.273841  10.782144  -0.532267  -1.809018   2.957961   1.164765   0.697327  -1.367854  -0.164776  -0.000592   5.746941 -16.251962   1.995325  34.465948   4.655585  42.576138 179.995690  80.092292 -179.995412  -6.473599   8.794014   7.513469   6.858883  13.062671   1.863433  42.668393 -10.270394 -37.604700 -179.999482 -78.303053 -179.999517  -3.658740  -9.562356  -9.692151 -20.538810  -4.952940 -14.541052  13.541154   0.000106  -0.000513  -5.030327  -7.103139   6.742154  -0.289379  -0.000350  -0.000158 -17.911379   6.048909   2.357427  16.844449   0.000123   0.000238  -9.473273   8.541595  -0.398535  -3.043859  -0.000076  -0.000124
 -2.354065   0.907283   3.925666  13.353222  -9.474815   5.016834  10.641283  -0.527453  -1.928237   2.941697   1.149791   0.671088  -1.376885  -0.197777   0.108120   5.759219 -16.262010   1.966185  34.533450   4.702754  42.744572 179.993859  80.259764 -179.993582  -6.518200   8.798402   7.502285   6.834671  13.102733   1.894867  42.542264 -10.224622 -37.618915 -179.999569 -78.357447 -179.999539  -3.660839  -9.556616  -9.674747 -20.424631  -5.024032 -14.251017  13.219316   0.000102  -0.000322  -4.612276  -7.101685   6.837272  -0.596084  -0.000096   0.000027 -17.881122   5.972219   2.621723  16.712270   0.000119   0.000289  -9.685679   8.506774  -0.311482  -2.605618  -0.000243  -0.000582
 -2.353738   0.907511   3.925784  13.388508  -9.546987   4.762189  10.507308  -0.541049  -2.062424   2.929355   1.117874   0.634323  -1.383705  -0.229110   0.208287   5.777700 -16.280308   1.946901  34.602191   4.746679  42.908804 179.992315  80.416282 -179.992043  -6.560267   8.792582   7.508862   6.809466  13.134208   1.923372  42.422046 -10.185145 -37.630899 -179.999560 -78.408232 -179.999481  -3.663209  -9.552083  -9.656259 -20.312405  -5.090964 -13.973258  12.922598   0.000083  -0.000213  -4.187321  -7.097255   6.919110  -0.941453   0.000070   0.000151 -17.850206   5.902131   2.875011  16.587005   0.000105   0.000303  -9.872813   8.477870  -0.226477  -2.213687  -0.000353  -0.000800
 -2.353369   0.907728   3.925884  13.414367  -9.604680   4.511086  10.378399  -0.567590  -2.208288   2.918402   1.073637   0.586899  -1.389622  -0.258669   0.300039   5.800689 -16.305583   1.931203  34.671212   4.785222  43.065425 179.991041  80.562534 -179.990760  -6.600396   8.783671   7.524463   6.784089  13.159188   1.950316  42.308175 -10.150292 -37.640564 -179.999509 -78.455112 -179.999392  -3.665611  -9.548425  -9.640154 -20.201843  -5.154004 -13.709185  12.649371   0.000054  -0.000157  -3.770213  -7.090753   6.991575  -1.301267   0.000163   0.000215 -17.819041   5.837331   3.116854  16.471197   0.000084   0.000292 -10.050597   8.452242  -0.146715  -1.847795  -0.000408  -0.000881
